<svg xmlns="http://www.w3.org/2000/svg" xmlns:xlink="http://www.w3.org/1999/xlink" version="1.1" x="0px" y="0px" viewBox="0 0 100 100" enable-background="new 0 0 100 100" xml:space="preserve"><path d="M91.667,7.632H9c-0.829,0-1.5,0.671-1.5,1.5v82.667c0,0.828,0.671,1.5,1.5,1.5h82.667c0.828,0,1.5-0.672,1.5-1.5V9.132  C93.167,8.304,92.495,7.632,91.667,7.632z M48.212,50.466L10.5,88.178V12.753L48.212,50.466z M12.621,10.632h75.425L50.333,48.344  L12.621,10.632z M50.333,52.587l37.712,37.712H12.621L50.333,52.587z M52.455,50.466l37.712-37.712v75.424L52.455,50.466z"/></svg>