<?xml version="1.0" ?><!DOCTYPE svg  PUBLIC '-//W3C//DTD SVG 1.1//EN'  'http://www.w3.org/Graphics/SVG/1.1/DTD/svg11.dtd'><svg enable-background="new 0 0 512 512" height="125px" id="Layer_1" version="1.1" viewBox="0 0 512 512" width="125px" xml:space="preserve" xmlns="http://www.w3.org/2000/svg" xmlns:xlink="http://www.w3.org/1999/xlink"><g id="non_chlorine_bleach_2"><polygon fill="#FC6E51" points="256,392.812 43.156,392.812 149.578,208.484 256,24.156 362.438,208.484 468.844,392.812  "/><path d="M512,10.656C512,4.766,507.219,0,501.328,0c-2.953,0-5.609,1.188-7.547,3.109l0,0L344.172,152.719L256,0L21.328,406.438   h69.125L3.11,493.781l0,0C1.188,495.719,0,498.375,0,501.328C0,507.219,4.766,512,10.656,512c2.953,0,5.609-1.203,7.547-3.141   l102.422-102.422h370.031L355.219,171.859L508.875,18.203C510.797,16.266,512,13.609,512,10.656z M58.281,385.109L256,42.656   l72.562,125.688l-88.984,88.969c-7.344-12.859-21.188-21.531-37.062-21.531c-23.562,0-42.672,19.094-42.672,42.656v42.672   c0,4.797,0.812,9.391,2.266,13.688l-50.328,50.312H58.281z M181.188,315.719v-37.281c0-11.75,9.562-21.328,21.328-21.328   c10.094,0,18.578,7.062,20.781,16.5L181.188,315.719z M453.703,385.109h-311.75l32.172-32.156   c7.547,6.734,17.484,10.828,28.391,10.828c23.562,0,42.672-19.109,42.672-42.672V320h-21.344v1.109   c0,11.766-9.562,21.328-21.328,21.328c-5,0-9.609-1.734-13.25-4.625l88.016-88.016v92.641v21.344h21.328h53.344v-21.344H298.61   V235.781h-7.312l48.297-48.312L453.703,385.109z"/></g></svg>